<svg width="36" height="14" viewBox="0 0 36 14" fill="none" xmlns="http://www.w3.org/2000/svg">
    <path d="M0.726562 7.0528C0.726562 10.992 2.29819 13.1449 4.841 13.1449C5.9889 13.1449 6.96007 12.7742 8.05495 12.0147V10.3551H7.17139C6.76643 11.5026 6.05884 12.0677 4.96249 12.0677C3.16114 12.0677 2.10197 10.4258 2.10197 7.21184C2.10197 3.87419 3.10812 2.12622 4.94482 2.12622C6.00436 2.12622 6.65782 2.65598 7.16992 3.78584H8.05348V2.17923C6.97627 1.47275 6.00509 1.08398 4.99784 1.08398C2.38765 1.08546 0.726562 3.22073 0.726562 7.0528Z" fill="black"/>
    <path d="M15.5263 7.68854C15.2613 8.6067 14.9962 9.77374 14.7311 11.1672H14.4134C14.2014 9.98432 13.9543 8.83643 13.6539 7.75885L11.8349 1.349H9.64551V12.8802H10.8994V2.24949H10.9362L14.0427 12.8802H15.1022L18.1748 2.24949H18.2116V12.8802H19.4655V1.349H17.3303L15.5263 7.68854Z" fill="black"/>
    <path d="M31.9993 5.03754L33.4406 2.35004V8.48195H30.1508L31.7593 5.48521C31.8417 5.33476 31.9217 5.18553 31.9993 5.03754ZM34.6677 8.46538V1.08545H32.8659L28.8398 8.46685V9.49104H33.4487V12.8817H34.6669V9.49104H35.7265V8.46538H34.6677Z" fill="black"/>
    <path d="M22.8742 11.7147C23.6164 10.1393 24.7095 9.20351 25.5916 8.25406C26.8455 6.91215 27.5693 5.67701 27.5693 4.03359C27.5693 2.12657 26.3864 0.85498 24.4794 0.85498C22.4306 0.85498 21.3711 2.07356 21.3711 4.33363V4.50924H22.6964V4.20919C22.6964 2.60222 23.2262 1.84273 24.3899 1.84273C25.5728 1.84273 26.2439 2.58455 26.2439 3.9618C26.2439 5.70977 25.2727 6.78698 23.9481 8.34278C22.5356 10.0028 21.4937 11.2037 21.4937 12.846V12.8828H27.7636V11.7147H22.8742Z" fill="black"/>
</svg>