<svg width="75" height="10" viewBox="0 0 75 10" fill="none" xmlns="http://www.w3.org/2000/svg">
    <path d="M4.96653 9.632C2.51853 9.632 0.778531 7.88 0.778531 5.3C0.778531 2.72 2.51853 0.968 4.96653 0.968C6.75453 0.968 8.13453 1.916 8.69853 3.584L7.40253 4.076C7.00653 2.948 6.11853 2.264 4.96653 2.264C3.39453 2.264 2.24253 3.404 2.24253 5.3C2.24253 7.196 3.39453 8.336 4.96653 8.336C6.11853 8.336 7.00653 7.652 7.40253 6.524L8.69853 7.016C8.13453 8.684 6.75453 9.632 4.96653 9.632ZM13.4992 0.968C15.9952 0.968 17.7472 2.72 17.7472 5.3C17.7472 7.88 15.9952 9.632 13.4992 9.632C11.0032 9.632 9.23919 7.88 9.23919 5.3C9.23919 2.72 11.0032 0.968 13.4992 0.968ZM13.4992 2.264C11.8792 2.264 10.7032 3.404 10.7032 5.3C10.7032 7.196 11.8792 8.336 13.4992 8.336C15.1072 8.336 16.2832 7.196 16.2832 5.3C16.2832 3.404 15.1072 2.264 13.4992 2.264ZM22.757 0.968C25.253 0.968 27.005 2.72 27.005 5.3C27.005 7.88 25.253 9.632 22.757 9.632C20.261 9.632 18.497 7.88 18.497 5.3C18.497 2.72 20.261 0.968 22.757 0.968ZM22.757 2.264C21.137 2.264 19.961 3.404 19.961 5.3C19.961 7.196 21.137 8.336 22.757 8.336C24.365 8.336 25.541 7.196 25.541 5.3C25.541 3.404 24.365 2.264 22.757 2.264ZM29.5428 8.24H33.5748V9.5H28.1388V1.1H29.5428V8.24ZM41.4507 9.5H39.8187L37.5387 6.356L35.2347 9.5H33.6267L36.7347 5.252L33.7227 1.1H35.3547L37.5507 4.124L39.7587 1.1H41.3667L38.3547 5.228L41.4507 9.5ZM45.2753 1.1C47.2433 1.1 48.4193 2.156 48.4193 3.848C48.4193 5.528 47.2433 6.56 45.2873 6.56H43.5113V9.5H42.1193V1.1H45.2753ZM45.1793 5.336C46.2833 5.336 46.9433 4.832 46.9433 3.848C46.9433 2.852 46.2833 2.36 45.1793 2.36H43.5113V5.336H45.1793ZM54.5438 9.5L52.2038 6.368H50.8238V9.5H49.4318V1.1H52.7438C54.5918 1.1 55.7558 2.096 55.7558 3.764C55.7558 5.048 54.9638 5.948 53.7158 6.26L56.2358 9.5H54.5438ZM50.8238 2.36V5.168H52.6598C53.6918 5.168 54.2918 4.688 54.2918 3.764C54.2918 2.828 53.6798 2.36 52.6598 2.36H50.8238ZM58.5233 1.1V9.5H57.1193V1.1H58.5233ZM67.1533 1.1V9.5H65.8693L61.4293 3.44V9.5H60.0373V1.1H61.3093L65.7493 7.16V1.1H67.1533ZM74.7103 1.1V2.36H72.0823V9.5H70.6783V2.36H68.0503V1.1H74.7103Z" fill="black"/>
</svg>