<svg width="59" height="12" viewBox="0 0 59 12" fill="none" xmlns="http://www.w3.org/2000/svg">
    <path d="M4.04655 11.7989C3.61706 11.8011 3.189 11.7491 2.7725 11.6442C2.37708 11.5425 1.99957 11.3808 1.65311 11.1648C1.30367 10.9459 1.0177 10.6393 0.823725 10.2754C0.610227 9.86868 0.503776 9.41426 0.514395 8.95499C0.514395 7.76794 1.14788 6.96755 2.41484 6.55382V6.51323C2.00066 6.36226 1.63656 6.09922 1.36312 5.75344C1.10089 5.40619 0.964534 4.98009 0.976456 4.54512C0.970182 4.2064 1.04604 3.87119 1.19755 3.56818C1.34906 3.26516 1.5717 3.00335 1.84644 2.80514C2.47026 2.34464 3.23097 2.10764 4.00595 2.13235C4.78332 2.10303 5.54798 2.3359 6.17706 2.79354C6.45201 2.99372 6.67417 3.25776 6.82438 3.5629C6.97459 3.86804 7.04835 4.20513 7.03931 4.54512C7.03931 5.48857 6.56758 6.14461 5.62413 6.51323V6.55382C6.15244 6.70118 6.62406 7.00436 6.97745 7.42381C7.33293 7.85337 7.51986 8.39767 7.50331 8.95499C7.50331 9.92552 7.16884 10.6421 6.49992 11.1048C5.77351 11.5842 4.91641 11.8266 4.04655 11.7989ZM4.04655 10.8554C4.76574 10.8554 5.3322 10.6866 5.74593 10.3489C5.95028 10.1806 6.11259 9.96702 6.21998 9.72506C6.32737 9.4831 6.37688 9.21943 6.36459 8.95499C6.37695 8.68211 6.32656 8.41002 6.21729 8.15966C6.10803 7.90929 5.94281 7.68732 5.73433 7.51081C5.31673 7.16024 4.73674 6.98495 3.99435 6.98495C3.25196 6.98495 2.68486 7.16024 2.29304 7.51081C2.08734 7.68902 1.92479 7.91159 1.81762 8.16175C1.71045 8.41192 1.66148 8.68315 1.67438 8.95499C1.66069 9.22149 1.71032 9.48744 1.8192 9.73107C1.92807 9.97469 2.0931 10.1891 2.30077 10.3566C2.71837 10.6892 3.30029 10.8554 4.04655 10.8554ZM2.59657 5.69157C3.00776 5.98049 3.50414 6.1228 4.00595 6.09563C4.50776 6.1228 5.00414 5.98049 5.41533 5.69157C5.58304 5.56174 5.71711 5.39352 5.80627 5.20108C5.89542 5.00864 5.93706 4.7976 5.92766 4.58572C5.9358 4.37484 5.89357 4.16506 5.80447 3.97376C5.71538 3.78246 5.58198 3.61514 5.41533 3.48566C5.00414 3.19674 4.50776 3.05443 4.00595 3.0816C3.50414 3.05443 3.00776 3.19674 2.59657 3.48566C2.42804 3.6151 2.29303 3.78309 2.20287 3.97551C2.11271 4.16794 2.07004 4.37918 2.07844 4.59152C2.07066 4.80293 2.11364 5.01313 2.20379 5.20452C2.29393 5.39592 2.42862 5.56293 2.59657 5.69157Z" fill="black"/>
    <path d="M12.3851 11.6055V9.33189H8.03125V8.31883L12.6016 2.26758H13.4909V8.42903H15.0144V9.33189H13.4909V11.6055H12.3851ZM9.12357 8.38843V8.42903H12.3851V4.10035H12.358L9.12357 8.38843Z" fill="black"/>
    <path d="M16.3794 11.6055V2.32565H20.7139C21.439 2.29334 22.1482 2.54432 22.6916 3.02551C22.9435 3.25976 23.1418 3.54567 23.273 3.86366C23.4041 4.18166 23.465 4.52424 23.4514 4.86795C23.4514 6.05371 22.9153 6.8193 21.8429 7.16472V7.20339C22.2541 7.32995 22.6031 7.60581 22.8212 7.97671C23.0158 8.32857 23.135 8.85894 23.1788 9.56782C23.2665 10.7536 23.4089 11.4148 23.6061 11.5514V11.6055H22.3475C22.2294 11.4677 22.1613 11.2939 22.1542 11.1125C22.1155 10.8638 22.0704 10.3366 22.0189 9.53109C21.9763 8.85443 21.8081 8.37111 21.5201 8.10238C21.232 7.83365 20.768 7.68671 20.1377 7.68671H17.5471V11.6055H16.3794ZM17.5394 3.34064V6.73939H20.2905C20.9304 6.73939 21.4157 6.58859 21.7443 6.29087C21.9145 6.13028 22.0475 5.93441 22.134 5.717C22.2205 5.49959 22.2584 5.26589 22.2451 5.03228C22.2451 4.45229 22.0981 4.02503 21.8043 3.74857C21.5104 3.4721 21.0309 3.3329 20.3639 3.3329L17.5394 3.34064Z" fill="black"/>
    <path d="M24.5552 11.6054V2.32556H25.7152V11.6054H24.5552Z" fill="black"/>
    <path d="M30.6294 11.7854C29.3843 11.7854 28.4267 11.4786 27.7565 10.8651C27.4233 10.5585 27.1555 10.1878 26.9692 9.77518C26.7828 9.36257 26.6817 8.91657 26.6719 8.46393H27.8145C27.9691 10.0557 28.9222 10.8516 30.6738 10.8516C31.2423 10.8801 31.8047 10.7234 32.2765 10.405C32.4755 10.2559 32.6347 10.0601 32.7399 9.83479C32.8451 9.60952 32.8931 9.36178 32.8797 9.11352C32.8851 8.88427 32.8361 8.65701 32.7367 8.45039C32.6529 8.27496 32.5368 8.11689 32.3945 7.98447C32.2142 7.83704 32.0093 7.72252 31.7893 7.64614C31.5509 7.55142 31.3076 7.46946 31.0605 7.40061C30.8304 7.33874 30.5172 7.26721 30.119 7.18021C29.7181 7.09678 29.3224 6.99027 28.9338 6.86121C28.6076 6.74584 28.2946 6.59613 28.0001 6.41462C27.7044 6.24048 27.4639 5.98652 27.306 5.6819C27.146 5.34324 27.0679 4.97172 27.0779 4.59731C27.0642 4.25012 27.1359 3.90488 27.2865 3.59178C27.4372 3.27868 27.6622 3.00726 27.9421 2.80127C28.5169 2.36434 29.2799 2.14587 30.2311 2.14587C32.3152 2.14587 33.4874 3.11253 33.7478 5.04584H32.6458C32.6018 4.47335 32.3361 3.94064 31.9053 3.56106C31.4993 3.22853 30.9503 3.06033 30.2582 3.06033C29.7223 3.03171 29.1903 3.16655 28.7328 3.44699C28.552 3.56672 28.405 3.73101 28.3061 3.92402C28.2073 4.11704 28.1598 4.33227 28.1683 4.54898C28.1641 4.74059 28.2066 4.93034 28.292 5.1019C28.3703 5.25758 28.4811 5.39469 28.6168 5.50403C28.7783 5.62749 28.9576 5.72591 29.1484 5.79596C29.3626 5.87936 29.5815 5.95036 29.8038 6.00862C30.0204 6.06469 30.2833 6.12462 30.5946 6.18456C31.0276 6.27155 31.3814 6.35082 31.6598 6.42429C31.9744 6.51124 32.282 6.62175 32.5801 6.75488C32.8681 6.86131 33.1299 7.02818 33.348 7.24428C33.5661 7.46037 33.7354 7.72067 33.8444 8.00767C33.9861 8.34661 34.0552 8.71145 34.0474 9.07872C34.0634 9.46205 33.986 9.84353 33.8221 10.1904C33.6581 10.5372 33.4123 10.8391 33.1059 11.07C32.4757 11.5469 31.6501 11.7854 30.6294 11.7854Z" fill="black"/>
    <path d="M34.9912 11.6054V2.32556H36.1512V11.6054H34.9912Z" fill="black"/>
    <path d="M37.1079 11.6054V2.32556H38.3414L42.5714 8.77315L43.2404 9.96986H43.2655V2.32556H44.3559V11.6054H43.163L38.9098 5.14433L38.2234 3.98434H38.1964V11.6054H37.1079Z" fill="black"/>
    <path d="M52.9284 11.6055L52.59 10.3856H52.5649C51.8908 11.3278 50.9261 11.7989 49.6707 11.7989C48.3741 11.7989 47.3263 11.3536 46.5272 10.463C45.7281 9.57234 45.326 8.41751 45.3208 6.99846C45.3208 5.5807 45.7126 4.41492 46.4962 3.50111C47.2799 2.5873 48.3754 2.13104 49.7829 2.13233C50.8385 2.13233 51.6923 2.39848 52.3445 2.93078C53.0088 3.48182 53.4421 4.26214 53.5586 5.11736H52.3522C52.2556 4.54218 51.9507 4.02265 51.4958 3.65771C50.9902 3.29529 50.3772 3.11409 49.7558 3.14345C48.6848 3.14345 47.876 3.49853 47.3295 4.2087C46.783 4.91887 46.5111 5.84879 46.5136 6.99846C46.5136 8.13138 46.812 9.04584 47.4088 9.74183C47.6895 10.0792 48.0431 10.3484 48.4429 10.5292C48.8428 10.7101 49.2785 10.7978 49.7171 10.7858C50.6258 10.7858 51.3199 10.5177 51.7993 9.98156C52.2918 9.41515 52.5497 8.68224 52.5204 7.93225V7.71186H49.7229V6.6988H53.6804V11.6055H52.9284Z" fill="black"/>
    <path d="M56.1995 0.198975H55.7046L55.7819 2.20962H56.126L56.1995 0.198975Z" fill="black"/>
    <path d="M55.7217 2.25023L53.8329 1.55811L53.6802 2.02983L55.6154 2.57696L55.7217 2.25023Z" fill="black"/>
    <path d="M54.0923 4.74026L54.4925 5.03219L55.9154 2.84755L55.637 2.64648L54.0923 4.74026Z" fill="black"/>
    <path d="M55.9868 2.84948L57.1081 4.51986L57.5083 4.22793L56.2652 2.64648L55.9868 2.84948Z" fill="black"/>
    <path d="M56.2885 2.57886L58.5137 1.90607L58.361 1.43628L56.1821 2.25214L56.2885 2.57886Z" fill="black"/>
    <path d="M55.952 2.86111C56.1452 2.86111 56.3019 2.70444 56.3019 2.51118C56.3019 2.31792 56.1452 2.16125 55.952 2.16125C55.7587 2.16125 55.6021 2.31792 55.6021 2.51118C55.6021 2.70444 55.7587 2.86111 55.952 2.86111Z" fill="black"/>
</svg>